{"title":"Ice Age Collision Course 2016 WEB-DL x264-FGT [CoolSceneHD]","uid":15946187,"size":867369478,"categoryP":"video","categoryS":"movies","magnet":"?xt=urn:btih:44966b8a839689585d91402c9f9b5ae05c69baa5&amp;dn=Ice+Age+Collision+Course+2016+WEB-DL+x264-FGT+%5BCoolSceneHD%5D&amp;tr=udp%3A%2F%2Ftracker.leechers-paradise.org%3A6969&amp;tr=udp%3A%2F%2Fzer0day.ch%3A1337&amp;tr=udp%3A%2F%2Fopen.demonii.com%3A1337&amp;tr=udp%3A%2F%2Ftracker.coppersurfer.tk%3A6969&amp;tr=udp%3A%2F%2Fexodus.desync.com%3A6969","seeders":10,"leechers":4,"uploader":"CoolSceneHD","files":1,"time":1475511433,"description":"Plot:\tScrat's epic pursuit of his elusive acorn catapults him outside of Earth| where he accidentally sets off a series of cosmic events that transform and threaten the planet. To save themselves from peril| Manny| Sid| Diego| and the rest of the herd leave their home and embark on a quest full of thrills and spills| highs and lows|laughter and adventure while traveling to exotic new lands and encountering a host of colorful new characters.\r\n\r\n\r\n\r\nVideo\r\nID                                       : 1\r\nFormat                                   : AVC\r\nFormat/Info                              : Advanced Video Codec\r\nFormat profile                           :   \r\nFormat settings, CABAC                   : Yes\r\nFormat settings, ReFrames                : 5 frames\r\nCodec ID                                 : avc1\r\nCodec ID/Info                            : Advanced Video Coding\r\nDuration                                 : 1h 35mn\r\nBit rate                                 : 1 100 Kbps\r\nWidth                                    : 720 pixels\r\nHeight                                   : 304 pixels\r\nDisplay aspect ratio                     : 2.40:1\r\nOriginal display aspect ratio            : 2.40:1\r\nFrame rate mode                          : Constant\r\nFrame rate                               : 24.000 fps\r\nColor space                              : YUV\r\nChroma subsampling                       : 4:2:0\r\nBit depth                                : 8 bits\r\nScan type                                : Progressive\r\nBits/(Pixel*Frame)                       : 0.209\r\nStream size                              : 737 MiB (89%)\r\nTitle                                    : Ice.Age.Collision.Course.2016.WEB-DL.x264-FGT\r\n\r\n\r\nAudio\r\nID                                       : 2\r\nFormat                                   : AAC\r\nFormat/Info                              : Advanced Audio Codec\r\nFormat profile                           : LC\r\nCodec ID                                 : 40\r\nDuration                                 : 1h 34mn\r\nDuration_LastFrame                       : 32ms\r\nBit rate mode                            : Variable\r\nBit rate                                 : 128 Kbps\r\nMaximum bit rate                         : 31.3 Mbps\r\nChannel(s)                               : 2 channels\r\nChannel positions                        : Front: L R\r\nSampling rate                            : 48.0 KHz\r\nFrame rate                               : 46.875 fps (1024 spf)\r\nCompression mode                         : Lossy\r\nStream size                              : 86.6 MiB (10%)\r\nTitle                                    : Ice.Age.Collision.Course.2016.WEB-DL.x264-FGT\r\nLanguage                                 : English\r\nDefault                                  : Yes\r\nAlternate group                          : 1","torrent":{"xt":"urn:btih:44966b8a839689585d91402c9f9b5ae05c69baa5","amp;dn":"Ice+Age+Collision+Course+2016+WEB-DL+x264-FGT+%5BCoolSceneHD%5D","amp;tr":["udp%3A%2F%2Ftracker.leechers-paradise.org%3A6969","udp%3A%2F%2Fzer0day.ch%3A1337","udp%3A%2F%2Fopen.demonii.com%3A1337","udp%3A%2F%2Ftracker.coppersurfer.tk%3A6969","udp%3A%2F%2Fexodus.desync.com%3A6969"],"infoHash":"44966b8a839689585d91402c9f9b5ae05c69baa5","infoHashBuffer":{"type":"Buffer","data":[68,150,107,138,131,150,137,88,93,145,64,44,159,155,90,224,92,105,186,165]},"announce":[],"urlList":[]}}